{"title":"Welcome.2009.SWESUB.DVDRip.XviD.AC3.(5.1)-Zen_Bud","uid":5716707,"size":1470297566,"categoryP":"video","categoryS":"movies","magnet":"?xt=urn:btih:19893a08d6e147a1bd4e368192a7aff51a91267f&amp;dn=Welcome.2009.SWESUB.DVDRip.XviD.AC3.%285.1%29-Zen_Bud&amp;tr=udp%3A%2F%2Ftracker.openbittorrent.com%3A80&amp;tr=udp%3A%2F%2Fopen.demonii.com%3A1337&amp;tr=udp%3A%2F%2Ftracker.coppersurfer.tk%3A6969&amp;tr=udp%3A%2F%2Fexodus.desync.com%3A6969","seeders":0,"leechers":1,"uploader":null,"files":1,"time":1280132943,"description":"General\nComplete name                    : Welcome.2009.avi\nFormat                           : AVI\nFile size                        : 1.37 GiB\nDuration                         : 1h 44mn\nOverall bit rate                 : 1 873 Kbps\n\nVideo\n\nFormat                           : MPEG-4 Visual\nCodec ID/Hint                    : XviD\nDuration                         : 1h 44mn\nBit rate                         : 1 414 Kbps\nWidth                            : 720 pixels\nHeight                           : 432 pixels\nDisplay aspect ratio             : 2.35:1\nStream size                      : 1.03 GiB (75%)\nWriting library                  : XviD 1.1.2 (UTC 2006-11-01)\n\nAudio\n\nFormat                           : AC-3\nBit rate                         : 448 Kbps\nChannel(s)                       : 6 channels\nChannel positions                : Front: L C R, Side: L R, LFE\nSampling rate                    : 48.0 KHz\nStream size                      : 335 MiB (24%)","torrent":{"xt":"urn:btih:19893a08d6e147a1bd4e368192a7aff51a91267f","amp;dn":"Welcome.2009.SWESUB.DVDRip.XviD.AC3.%285.1%29-Zen_Bud","amp;tr":["udp%3A%2F%2Ftracker.openbittorrent.com%3A80","udp%3A%2F%2Fopen.demonii.com%3A1337","udp%3A%2F%2Ftracker.coppersurfer.tk%3A6969","udp%3A%2F%2Fexodus.desync.com%3A6969"],"infoHash":"19893a08d6e147a1bd4e368192a7aff51a91267f","infoHashBuffer":{"type":"Buffer","data":[25,137,58,8,214,225,71,161,189,78,54,129,146,167,175,245,26,145,38,127]},"announce":[],"urlList":[]}}